# xmcd
#
# Track frame offsets: 
#        150
#        23050
#        43615
#        63415
#        87883
#        104690
#        129470
#        145705
#        163375
#        188668
#
# Disc length: 2741 seconds
#
# Revision: 0
# Processed by: cddbd v1.5.2PL0 Copyright (c) Steve Scherf et al.
# Submitted via: ExactAudioCopyFreeDBPlugin 1.0
#
DISCID=860ab30a
DTITLE=Big Danny and The Lost Leader Band - Sign of Faith
DYEAR=1993
DGENRE=Blues
TTITLE0=Johnny Come Lately
TTITLE1=That's no Jive
TTITLE2=Summertime in my Hometown
TTITLE3=Goin with the Flow
TTITLE4=Love Gravy
TTITLE5=Broken Dollies
TTITLE6=Loud Music
TTITLE7=Don't Stop the Dreamin
TTITLE8=Broken Promises
TTITLE9=I'll Do Anything for 50 Bucks
EXTD=
EXTT0=
EXTT1=
EXTT2=
EXTT3=
EXTT4=
EXTT5=
EXTT6=
EXTT7=
EXTT8=
EXTT9=
PLAYORDER=
